<mxfile host="Electron" modified="2024-04-09T07:58:46.350Z" agent="Mozilla/5.0 (Windows NT 10.0; Win64; x64) AppleWebKit/537.36 (KHTML, like Gecko) draw.io/24.1.0 Chrome/120.0.6099.109 Electron/28.1.0 Safari/537.36" etag="eIq7HXUozQ9APMdyzqzT" version="24.1.0" type="device">
  <diagram name="第 1 页" id="IQNlH83wUXT9l9OODXNY">
    <mxGraphModel dx="2419" dy="1386" grid="1" gridSize="10" guides="1" tooltips="1" connect="1" arrows="1" fold="1" page="1" pageScale="1" pageWidth="2336" pageHeight="1654" math="0" shadow="0">
      <root>
        <mxCell id="0" />
        <mxCell id="1" parent="0" />
        <mxCell id="f76QWh_fojIJmBM_7qTh-5" style="edgeStyle=orthogonalEdgeStyle;rounded=0;orthogonalLoop=1;jettySize=auto;html=1;exitX=0.5;exitY=1;exitDx=0;exitDy=0;exitPerimeter=0;fontSize=16;" edge="1" parent="1" source="f76QWh_fojIJmBM_7qTh-3" target="f76QWh_fojIJmBM_7qTh-4">
          <mxGeometry relative="1" as="geometry" />
        </mxCell>
        <mxCell id="f76QWh_fojIJmBM_7qTh-3" value="开始" style="strokeWidth=2;html=1;shape=mxgraph.flowchart.start_2;whiteSpace=wrap;fontSize=16;" vertex="1" parent="1">
          <mxGeometry x="550" y="30" width="100" height="100" as="geometry" />
        </mxCell>
        <mxCell id="f76QWh_fojIJmBM_7qTh-11" style="edgeStyle=orthogonalEdgeStyle;rounded=0;orthogonalLoop=1;jettySize=auto;html=1;exitX=0.5;exitY=1;exitDx=0;exitDy=0;entryX=0.5;entryY=0;entryDx=0;entryDy=0;fontSize=16;" edge="1" parent="1" source="f76QWh_fojIJmBM_7qTh-4" target="f76QWh_fojIJmBM_7qTh-9">
          <mxGeometry relative="1" as="geometry" />
        </mxCell>
        <mxCell id="f76QWh_fojIJmBM_7qTh-4" value="avformat_alloc_output_context2" style="rounded=0;whiteSpace=wrap;html=1;fontSize=16;" vertex="1" parent="1">
          <mxGeometry x="472.5" y="170" width="255" height="60" as="geometry" />
        </mxCell>
        <mxCell id="f76QWh_fojIJmBM_7qTh-14" style="edgeStyle=orthogonalEdgeStyle;rounded=0;orthogonalLoop=1;jettySize=auto;html=1;exitX=0.5;exitY=1;exitDx=0;exitDy=0;entryX=0.5;entryY=0;entryDx=0;entryDy=0;fontSize=16;" edge="1" parent="1" source="f76QWh_fojIJmBM_7qTh-8" target="f76QWh_fojIJmBM_7qTh-12">
          <mxGeometry relative="1" as="geometry" />
        </mxCell>
        <mxCell id="f76QWh_fojIJmBM_7qTh-8" value="fmt-&amp;gt;video_codec = AV_CODEC_ID_H264;" style="rounded=0;whiteSpace=wrap;html=1;fontSize=16;" vertex="1" parent="1">
          <mxGeometry x="370" y="290" width="180" height="60" as="geometry" />
        </mxCell>
        <mxCell id="f76QWh_fojIJmBM_7qTh-15" style="edgeStyle=orthogonalEdgeStyle;rounded=0;orthogonalLoop=1;jettySize=auto;html=1;exitX=0.5;exitY=1;exitDx=0;exitDy=0;entryX=0.5;entryY=0;entryDx=0;entryDy=0;fontSize=16;" edge="1" parent="1" source="f76QWh_fojIJmBM_7qTh-9" target="f76QWh_fojIJmBM_7qTh-13">
          <mxGeometry relative="1" as="geometry" />
        </mxCell>
        <mxCell id="f76QWh_fojIJmBM_7qTh-9" value="fmt-&amp;gt;audio_codec = AV_CODEC_ID_AAC;&amp;nbsp;" style="rounded=0;whiteSpace=wrap;html=1;fontSize=16;" vertex="1" parent="1">
          <mxGeometry x="650" y="290" width="180" height="60" as="geometry" />
        </mxCell>
        <mxCell id="f76QWh_fojIJmBM_7qTh-10" style="edgeStyle=orthogonalEdgeStyle;rounded=0;orthogonalLoop=1;jettySize=auto;html=1;exitX=0.5;exitY=1;exitDx=0;exitDy=0;entryX=0.467;entryY=0.033;entryDx=0;entryDy=0;entryPerimeter=0;fontSize=16;" edge="1" parent="1" source="f76QWh_fojIJmBM_7qTh-4" target="f76QWh_fojIJmBM_7qTh-8">
          <mxGeometry relative="1" as="geometry" />
        </mxCell>
        <mxCell id="f76QWh_fojIJmBM_7qTh-19" style="edgeStyle=orthogonalEdgeStyle;rounded=0;orthogonalLoop=1;jettySize=auto;html=1;exitX=0.5;exitY=1;exitDx=0;exitDy=0;fontSize=16;" edge="1" parent="1" source="f76QWh_fojIJmBM_7qTh-12" target="f76QWh_fojIJmBM_7qTh-17">
          <mxGeometry relative="1" as="geometry" />
        </mxCell>
        <mxCell id="f76QWh_fojIJmBM_7qTh-12" value="add_stream(video)" style="rounded=0;whiteSpace=wrap;html=1;fontSize=16;" vertex="1" parent="1">
          <mxGeometry x="370" y="400" width="180" height="60" as="geometry" />
        </mxCell>
        <mxCell id="f76QWh_fojIJmBM_7qTh-20" style="edgeStyle=orthogonalEdgeStyle;rounded=0;orthogonalLoop=1;jettySize=auto;html=1;exitX=0.5;exitY=1;exitDx=0;exitDy=0;fontSize=16;" edge="1" parent="1" source="f76QWh_fojIJmBM_7qTh-13" target="f76QWh_fojIJmBM_7qTh-18">
          <mxGeometry relative="1" as="geometry" />
        </mxCell>
        <mxCell id="f76QWh_fojIJmBM_7qTh-13" value="add_stream(audio)" style="rounded=0;whiteSpace=wrap;html=1;fontSize=16;" vertex="1" parent="1">
          <mxGeometry x="650" y="400" width="180" height="60" as="geometry" />
        </mxCell>
        <mxCell id="f76QWh_fojIJmBM_7qTh-23" style="edgeStyle=orthogonalEdgeStyle;rounded=0;orthogonalLoop=1;jettySize=auto;html=1;exitX=0.5;exitY=1;exitDx=0;exitDy=0;entryX=0.5;entryY=0;entryDx=0;entryDy=0;fontSize=16;" edge="1" parent="1" source="f76QWh_fojIJmBM_7qTh-17" target="f76QWh_fojIJmBM_7qTh-22">
          <mxGeometry relative="1" as="geometry" />
        </mxCell>
        <mxCell id="f76QWh_fojIJmBM_7qTh-17" value="open_video" style="rounded=0;whiteSpace=wrap;html=1;fontSize=16;" vertex="1" parent="1">
          <mxGeometry x="370" y="510" width="180" height="60" as="geometry" />
        </mxCell>
        <mxCell id="f76QWh_fojIJmBM_7qTh-24" style="edgeStyle=orthogonalEdgeStyle;rounded=0;orthogonalLoop=1;jettySize=auto;html=1;exitX=0.5;exitY=1;exitDx=0;exitDy=0;entryX=0.5;entryY=0;entryDx=0;entryDy=0;fontSize=16;" edge="1" parent="1" source="f76QWh_fojIJmBM_7qTh-18" target="f76QWh_fojIJmBM_7qTh-22">
          <mxGeometry relative="1" as="geometry" />
        </mxCell>
        <mxCell id="f76QWh_fojIJmBM_7qTh-18" value="open_audio" style="rounded=0;whiteSpace=wrap;html=1;fontSize=16;" vertex="1" parent="1">
          <mxGeometry x="650" y="510" width="180" height="60" as="geometry" />
        </mxCell>
        <mxCell id="f76QWh_fojIJmBM_7qTh-26" style="edgeStyle=orthogonalEdgeStyle;rounded=0;orthogonalLoop=1;jettySize=auto;html=1;exitX=0.5;exitY=1;exitDx=0;exitDy=0;entryX=0.5;entryY=0;entryDx=0;entryDy=0;fontSize=16;" edge="1" parent="1" source="f76QWh_fojIJmBM_7qTh-22" target="f76QWh_fojIJmBM_7qTh-25">
          <mxGeometry relative="1" as="geometry" />
        </mxCell>
        <mxCell id="f76QWh_fojIJmBM_7qTh-22" value="avio_open" style="rounded=0;whiteSpace=wrap;html=1;fontSize=16;" vertex="1" parent="1">
          <mxGeometry x="510" y="630" width="180" height="60" as="geometry" />
        </mxCell>
        <mxCell id="f76QWh_fojIJmBM_7qTh-29" style="edgeStyle=orthogonalEdgeStyle;rounded=0;orthogonalLoop=1;jettySize=auto;html=1;exitX=0.5;exitY=1;exitDx=0;exitDy=0;entryX=0.5;entryY=0;entryDx=0;entryDy=0;" edge="1" parent="1" source="f76QWh_fojIJmBM_7qTh-25" target="f76QWh_fojIJmBM_7qTh-27">
          <mxGeometry relative="1" as="geometry" />
        </mxCell>
        <mxCell id="f76QWh_fojIJmBM_7qTh-25" value="avformat_write_header" style="rounded=0;whiteSpace=wrap;html=1;fontSize=16;" vertex="1" parent="1">
          <mxGeometry x="510" y="740" width="180" height="60" as="geometry" />
        </mxCell>
        <mxCell id="f76QWh_fojIJmBM_7qTh-32" style="edgeStyle=orthogonalEdgeStyle;rounded=0;orthogonalLoop=1;jettySize=auto;html=1;exitX=0.5;exitY=1;exitDx=0;exitDy=0;entryX=0.5;entryY=0;entryDx=0;entryDy=0;" edge="1" parent="1" source="f76QWh_fojIJmBM_7qTh-27" target="f76QWh_fojIJmBM_7qTh-31">
          <mxGeometry relative="1" as="geometry" />
        </mxCell>
        <mxCell id="f76QWh_fojIJmBM_7qTh-27" value="write_video_frame" style="rounded=0;whiteSpace=wrap;html=1;fontSize=16;" vertex="1" parent="1">
          <mxGeometry x="370" y="850" width="160" height="60" as="geometry" />
        </mxCell>
        <mxCell id="f76QWh_fojIJmBM_7qTh-33" style="edgeStyle=orthogonalEdgeStyle;rounded=0;orthogonalLoop=1;jettySize=auto;html=1;exitX=0.5;exitY=1;exitDx=0;exitDy=0;entryX=0.5;entryY=0;entryDx=0;entryDy=0;" edge="1" parent="1" source="f76QWh_fojIJmBM_7qTh-28" target="f76QWh_fojIJmBM_7qTh-31">
          <mxGeometry relative="1" as="geometry" />
        </mxCell>
        <mxCell id="f76QWh_fojIJmBM_7qTh-28" value="write_audio_frame" style="rounded=0;whiteSpace=wrap;html=1;fontSize=16;" vertex="1" parent="1">
          <mxGeometry x="670" y="850" width="160" height="60" as="geometry" />
        </mxCell>
        <mxCell id="f76QWh_fojIJmBM_7qTh-30" style="edgeStyle=orthogonalEdgeStyle;rounded=0;orthogonalLoop=1;jettySize=auto;html=1;exitX=0.5;exitY=1;exitDx=0;exitDy=0;entryX=0.544;entryY=0.036;entryDx=0;entryDy=0;entryPerimeter=0;" edge="1" parent="1" source="f76QWh_fojIJmBM_7qTh-25" target="f76QWh_fojIJmBM_7qTh-28">
          <mxGeometry relative="1" as="geometry" />
        </mxCell>
        <mxCell id="f76QWh_fojIJmBM_7qTh-36" style="edgeStyle=orthogonalEdgeStyle;rounded=0;orthogonalLoop=1;jettySize=auto;html=1;exitX=0.5;exitY=1;exitDx=0;exitDy=0;entryX=0.5;entryY=0;entryDx=0;entryDy=0;" edge="1" parent="1" source="f76QWh_fojIJmBM_7qTh-31" target="f76QWh_fojIJmBM_7qTh-34">
          <mxGeometry relative="1" as="geometry" />
        </mxCell>
        <mxCell id="f76QWh_fojIJmBM_7qTh-37" style="edgeStyle=orthogonalEdgeStyle;rounded=0;orthogonalLoop=1;jettySize=auto;html=1;exitX=0.5;exitY=1;exitDx=0;exitDy=0;entryX=0.5;entryY=0;entryDx=0;entryDy=0;" edge="1" parent="1" source="f76QWh_fojIJmBM_7qTh-31" target="f76QWh_fojIJmBM_7qTh-35">
          <mxGeometry relative="1" as="geometry" />
        </mxCell>
        <mxCell id="f76QWh_fojIJmBM_7qTh-31" value="av_write_trailer" style="rounded=0;whiteSpace=wrap;html=1;fontSize=16;" vertex="1" parent="1">
          <mxGeometry x="500" y="970" width="180" height="60" as="geometry" />
        </mxCell>
        <mxCell id="f76QWh_fojIJmBM_7qTh-43" style="edgeStyle=orthogonalEdgeStyle;rounded=0;orthogonalLoop=1;jettySize=auto;html=1;exitX=0.5;exitY=1;exitDx=0;exitDy=0;entryX=0.5;entryY=0;entryDx=0;entryDy=0;" edge="1" parent="1" source="f76QWh_fojIJmBM_7qTh-34" target="f76QWh_fojIJmBM_7qTh-40">
          <mxGeometry relative="1" as="geometry" />
        </mxCell>
        <mxCell id="f76QWh_fojIJmBM_7qTh-34" value="close_stream(video)" style="rounded=0;whiteSpace=wrap;html=1;fontSize=16;" vertex="1" parent="1">
          <mxGeometry x="370" y="1090" width="160" height="60" as="geometry" />
        </mxCell>
        <mxCell id="f76QWh_fojIJmBM_7qTh-44" style="edgeStyle=orthogonalEdgeStyle;rounded=0;orthogonalLoop=1;jettySize=auto;html=1;exitX=0.5;exitY=1;exitDx=0;exitDy=0;entryX=0.5;entryY=0;entryDx=0;entryDy=0;" edge="1" parent="1" source="f76QWh_fojIJmBM_7qTh-35" target="f76QWh_fojIJmBM_7qTh-40">
          <mxGeometry relative="1" as="geometry" />
        </mxCell>
        <mxCell id="f76QWh_fojIJmBM_7qTh-35" value="close_stream(audio)" style="rounded=0;whiteSpace=wrap;html=1;fontSize=16;" vertex="1" parent="1">
          <mxGeometry x="670" y="1090" width="160" height="60" as="geometry" />
        </mxCell>
        <mxCell id="f76QWh_fojIJmBM_7qTh-45" style="edgeStyle=orthogonalEdgeStyle;rounded=0;orthogonalLoop=1;jettySize=auto;html=1;exitX=0.5;exitY=1;exitDx=0;exitDy=0;" edge="1" parent="1" source="f76QWh_fojIJmBM_7qTh-40" target="f76QWh_fojIJmBM_7qTh-41">
          <mxGeometry relative="1" as="geometry" />
        </mxCell>
        <mxCell id="f76QWh_fojIJmBM_7qTh-40" value="avio_close" style="rounded=0;whiteSpace=wrap;html=1;fontSize=16;" vertex="1" parent="1">
          <mxGeometry x="500" y="1220" width="180" height="60" as="geometry" />
        </mxCell>
        <mxCell id="f76QWh_fojIJmBM_7qTh-41" value="avformatt_free_context" style="rounded=0;whiteSpace=wrap;html=1;fontSize=16;" vertex="1" parent="1">
          <mxGeometry x="500" y="1330" width="180" height="60" as="geometry" />
        </mxCell>
        <mxCell id="f76QWh_fojIJmBM_7qTh-46" value="end" style="strokeWidth=2;html=1;shape=mxgraph.flowchart.terminator;whiteSpace=wrap;fontSize=16;" vertex="1" parent="1">
          <mxGeometry x="540" y="1440" width="100" height="60" as="geometry" />
        </mxCell>
        <mxCell id="f76QWh_fojIJmBM_7qTh-47" style="edgeStyle=orthogonalEdgeStyle;rounded=0;orthogonalLoop=1;jettySize=auto;html=1;exitX=0.5;exitY=1;exitDx=0;exitDy=0;entryX=0.5;entryY=0;entryDx=0;entryDy=0;entryPerimeter=0;" edge="1" parent="1" source="f76QWh_fojIJmBM_7qTh-41" target="f76QWh_fojIJmBM_7qTh-46">
          <mxGeometry relative="1" as="geometry" />
        </mxCell>
        <mxCell id="f76QWh_fojIJmBM_7qTh-48" value="&lt;font style=&quot;font-size: 18px;&quot;&gt;总体流程&lt;/font&gt;" style="text;html=1;align=center;verticalAlign=middle;resizable=0;points=[];autosize=1;strokeColor=none;fillColor=none;fontSize=16;" vertex="1" parent="1">
          <mxGeometry x="220" y="85" width="100" height="40" as="geometry" />
        </mxCell>
        <mxCell id="f76QWh_fojIJmBM_7qTh-49" value="&lt;font style=&quot;font-size: 18px;&quot;&gt;根据filename绑定合适的AVOputFormat&lt;/font&gt;" style="text;html=1;align=left;verticalAlign=middle;resizable=0;points=[];autosize=1;strokeColor=none;fillColor=none;" vertex="1" parent="1">
          <mxGeometry x="770" y="180" width="340" height="40" as="geometry" />
        </mxCell>
        <mxCell id="f76QWh_fojIJmBM_7qTh-50" value="&lt;font style=&quot;font-size: 18px;&quot;&gt;根据需求选择编码器&lt;/font&gt;" style="text;html=1;align=center;verticalAlign=middle;resizable=0;points=[];autosize=1;strokeColor=none;fillColor=none;" vertex="1" parent="1">
          <mxGeometry x="860" y="300" width="190" height="40" as="geometry" />
        </mxCell>
        <mxCell id="f76QWh_fojIJmBM_7qTh-51" value="&lt;font style=&quot;font-size: 18px;&quot;&gt;添加流 , 设置编码器参数&lt;/font&gt;" style="text;html=1;align=center;verticalAlign=middle;resizable=0;points=[];autosize=1;strokeColor=none;fillColor=none;" vertex="1" parent="1">
          <mxGeometry x="845" y="410" width="220" height="40" as="geometry" />
        </mxCell>
        <mxCell id="f76QWh_fojIJmBM_7qTh-53" value="&lt;font style=&quot;font-size: 18px;&quot;&gt;关联编码器&lt;/font&gt;&lt;div style=&quot;font-size: 18px;&quot;&gt;&lt;font style=&quot;font-size: 18px;&quot;&gt;初始化YUV产生参数用于分配帧buffer&lt;/font&gt;&lt;/div&gt;&lt;div style=&quot;font-size: 18px;&quot;&gt;初始化图像scale&lt;/div&gt;" style="text;html=1;align=center;verticalAlign=middle;resizable=0;points=[];autosize=1;strokeColor=none;fillColor=none;" vertex="1" parent="1">
          <mxGeometry x="30" y="508" width="320" height="80" as="geometry" />
        </mxCell>
        <mxCell id="f76QWh_fojIJmBM_7qTh-54" value="&lt;font style=&quot;font-size: 18px;&quot;&gt;关联编码器&lt;/font&gt;&lt;div style=&quot;font-size: 18px;&quot;&gt;&lt;font style=&quot;font-size: 18px;&quot;&gt;初始化PCM产生参数用于分配帧buffer&lt;/font&gt;&lt;/div&gt;&lt;div style=&quot;font-size: 18px;&quot;&gt;初始化重采样&lt;/div&gt;" style="text;html=1;align=center;verticalAlign=middle;resizable=0;points=[];autosize=1;strokeColor=none;fillColor=none;" vertex="1" parent="1">
          <mxGeometry x="865" y="510" width="330" height="80" as="geometry" />
        </mxCell>
        <mxCell id="f76QWh_fojIJmBM_7qTh-55" value="&lt;font style=&quot;font-size: 18px;&quot;&gt;获取frame&lt;/font&gt;&lt;div&gt;&lt;font style=&quot;font-size: 18px;&quot;&gt;编码&lt;/font&gt;&lt;/div&gt;&lt;div&gt;&lt;font style=&quot;&quot;&gt;&lt;span style=&quot;font-size: 18px;&quot;&gt;av_packet_rescale_ts转换time_base&lt;/span&gt;&lt;br&gt;&lt;/font&gt;&lt;/div&gt;&lt;div&gt;&lt;font style=&quot;&quot;&gt;&lt;span style=&quot;font-size: 18px;&quot;&gt;av_interleaved_write_frame写入packet&lt;/span&gt;&lt;/font&gt;&lt;/div&gt;" style="text;html=1;align=center;verticalAlign=middle;resizable=0;points=[];autosize=1;strokeColor=none;fillColor=none;" vertex="1" parent="1">
          <mxGeometry x="860" y="840" width="330" height="100" as="geometry" />
        </mxCell>
      </root>
    </mxGraphModel>
  </diagram>
</mxfile>
